# xmcd
#
# Track frame offsets:
#	150
#	17113
#	31915
#	49349
#	65324
#	85630
#	104153
#	120337
#	137981
#	155529
#	173841
#	192697
#
# Disc length: 2856 seconds
#
# Revision: 0
# Processed by: cddbd v1.4PL0 Copyright (c) Steve Scherf et al.
# Submitted via: dBpowerAMP V4.0
#
DISCID=a40b260c
DTITLE=Blue Dawgs - Where's My Drink?
DYEAR=1997
DGENRE=Blues
TTITLE0=Voodoo Bone Blues
TTITLE1=A Boogie
TTITLE2=Eyes For Someone Else
TTITLE3=Shake Your Money Maker
TTITLE4=Makin' Bacon
TTITLE5=Wakin' at the Wheel
TTITLE6=Thank You
TTITLE7=Oh, Pretty Woman
TTITLE8=Mean as a Snake
TTITLE9=Fleas
TTITLE10=Where's My Drink
TTITLE11=Sweet Home Chicago
EXTD=
EXTT0=
EXTT1=
EXTT2=
EXTT3=
EXTT4=
EXTT5=
EXTT6=
EXTT7=
EXTT8=
EXTT9=
EXTT10=
EXTT11=
PLAYORDER=
